HIERARCHY
ROOT Joint1
{
	OFFSET 0.000000 0.000000 0.000000
	CHANNELS 6 Xposition Yposition Zposition Xrotation Yrotation Zrotation
	JOINT Joint2
	{
		OFFSET -0.000000 0.000000 1.456275
		CHANNELS 6 Xposition Yposition Zposition Xrotation Yrotation Zrotation
		JOINT Joint3
		{
			OFFSET -0.000000 0.000002 1.471446
			CHANNELS 6 Xposition Yposition Zposition Xrotation Yrotation Zrotation
			JOINT Joint4
			{
				OFFSET 0.625745 0.000000 0.917755
				CHANNELS 6 Xposition Yposition Zposition Xrotation Yrotation Zrotation
				JOINT Joint5
				{
					OFFSET -0.629534 0.000001 0.940221
					CHANNELS 6 Xposition Yposition Zposition Xrotation Yrotation Zrotation
					JOINT Joint6
					{
						OFFSET -0.000001 0.113772 1.960660
						CHANNELS 6 Xposition Yposition Zposition Xrotation Yrotation Zrotation
						JOINT Joint7
						{
							OFFSET -0.669733 -0.113771 0.388340
							CHANNELS 6 Xposition Yposition Zposition Xrotation Yrotation Zrotation
							End Site
							{
								OFFSET 0.005509 0.005509 0.438980
							}
						}
					}
				}
			}
		}
	}
}
MOTION
Frames: 29
Frame Time: 0.041667
0.000000 0.000000 0.000000 -0.000000 1.019410 74.042024 -0.000000 -0.000000 1.456275 -0.000000 -13.056643 0.000001 -0.000000 0.000002 1.471445 -0.000002 -1.133456 56.718762 0.625745 0.000000 0.917755 -0.000006 104.813672 -0.000018 -0.629533 0.000001 0.940221 -0.000002 1.709736 59.985426 -0.000000 0.113772 1.960661 -88.303882 -210.907649 0.000001 -0.669733 -0.113771 0.388341 0.253100 2.890537 64.577635 
0.000000 0.000000 0.000000 -0.000000 1.019410 72.679831 -0.000000 0.000000 1.456275 0.000000 -13.643906 -0.000001 -0.000000 0.000002 1.471446 -0.000003 -1.133456 55.674856 0.625745 0.000001 0.917755 -0.000000 105.369301 -0.000006 -0.629534 0.000001 0.940221 0.000002 1.709737 58.881777 -0.000000 0.113772 1.960661 -88.303875 -211.995234 -0.000002 -0.669733 -0.113771 0.388340 0.245155 2.912081 65.871758 
0.000000 0.000000 0.000000 -0.000000 1.019410 71.014296 -0.000000 0.000000 1.456275 0.000000 -14.361941 -0.000001 -0.000000 0.000002 1.471446 -0.000002 -1.133456 54.398495 0.625745 0.000000 0.917755 0.000007 106.048666 -0.000003 -0.629534 0.000001 0.940221 -0.000001 1.709736 57.532370 -0.000001 0.113772 1.960660 -88.303882 -213.325003 -0.000003 -0.669733 -0.113771 0.388340 0.234779 2.938170 67.454101 
0.000000 0.000000 0.000000 -0.000000 1.019410 69.045412 -0.000000 -0.000000 1.456275 0.000000 -15.210754 0.000000 -0.000000 0.000002 1.471446 -0.000002 -1.133457 52.889659 0.625745 0.000000 0.917755 0.000015 106.851746 0.000009 -0.629533 0.000001 0.940221 -0.000003 1.709736 55.937200 -0.000001 0.113772 1.960660 -88.303875 -214.896971 0.000005 -0.669733 -0.113771 0.388341 0.221587 2.968629 69.324685 
0.000000 0.000000 0.000000 -0.000000 1.019410 67.076528 -0.000000 0.000000 1.456275 -0.000000 -16.059566 0.000000 -0.000000 0.000002 1.471446 -0.000003 -1.133456 51.380825 0.625744 0.000000 0.917755 0.000006 107.654826 -0.000006 -0.629533 0.000001 0.940221 -0.000001 1.709736 54.342027 -0.000001 0.113772 1.960660 -88.303882 -216.468953 0.000004 -0.669733 -0.113771 0.388340 0.207408 2.998640 71.195324 
0.000000 0.000000 0.000000 -0.000000 1.019410 65.410987 -0.000000 -0.000000 1.456275 -0.000000 -16.777607 -0.000001 -0.000000 0.000002 1.471446 -0.000001 -1.133456 50.104458 0.625745 0.000000 0.917756 0.000016 108.334177 -0.000002 -0.629534 0.000001 0.940221 0.000001 1.709736 52.992624 -0.000000 0.113772 1.960660 -88.303882 -217.798723 0.000002 -0.669733 -0.113771 0.388340 0.194651 3.023657 72.777810 
0.000000 0.000000 0.000000 -0.000000 1.019410 64.048808 -0.000000 -0.000000 1.456275 -0.000000 -17.364863 0.000000 -0.000000 0.000002 1.471445 -0.000001 -1.133458 49.060556 0.625744 0.000000 0.917755 0.000007 108.889799 -0.000002 -0.629533 0.000001 0.940221 0.000001 1.709737 51.888974 -0.000001 0.113772 1.960660 -88.303882 -218.886307 0.000005 -0.669733 -0.113771 0.388340 0.183707 3.043848 74.072104 
0.000000 0.000000 0.000000 -0.000000 1.019410 61.776575 -0.000000 0.000000 1.456275 -0.000001 -18.344450 0.000001 -0.000000 0.000002 1.471446 -0.000002 -1.133456 47.319257 0.625744 0.000000 0.917755 0.000007 109.816615 -0.000002 -0.629533 0.000001 0.940221 -0.000002 1.709736 50.048044 -0.000001 0.113772 1.960660 -88.303882 -220.700460 0.000002 -0.669733 -0.113771 0.388340 0.164443 3.076960 76.231140 
0.000000 0.000000 0.000000 -0.000000 1.019410 58.142163 -0.000000 0.000000 1.456275 0.000001 -19.911301 0.000002 -0.000000 0.000002 1.471446 -0.000001 -1.133455 44.534059 0.625745 0.000000 0.917755 0.000006 111.299046 -0.000002 -0.629533 0.000001 0.940221 -0.000001 1.709736 47.103467 -0.000001 0.113773 1.960660 -88.303875 -223.602211 0.000003 -0.669733 -0.113771 0.388340 0.131073 3.128353 79.684668 
0.000000 0.000000 0.000000 -0.000000 1.019410 55.880619 -0.000000 -0.000000 1.456275 0.000001 -20.886283 0.000002 -0.000000 0.000002 1.471446 -0.000001 -1.133455 42.800943 0.625745 0.000000 0.917755 0.000006 112.221504 -0.000005 -0.629534 0.000001 0.940221 -0.000000 1.709736 45.271180 -0.000001 0.113772 1.960661 -88.303875 -225.407840 0.000004 -0.669733 -0.113771 0.388340 0.108765 3.159285 81.833746 
0.000000 0.000000 0.000000 -0.000000 1.019410 54.507741 -0.000000 0.000000 1.456275 0.000001 -21.478151 0.000003 -0.000000 0.000002 1.471446 -0.000002 -1.133456 41.748855 0.625745 0.000000 0.917755 0.000004 112.781484 -0.000003 -0.629534 0.000001 0.940221 -0.000001 1.709737 44.158884 -0.000000 0.113772 1.960661 -88.303875 -226.503963 0.000002 -0.669733 -0.113771 0.388340 0.094661 3.177647 83.138388 
0.000000 0.000000 0.000000 -0.000000 1.019410 52.801604 -0.000000 -0.000000 1.456275 0.000001 -22.213689 -0.000001 -0.000000 0.000002 1.471446 0.000001 -1.133457 40.441379 0.625745 0.000000 0.917756 0.000005 113.477391 -0.000004 -0.629534 0.000001 0.940221 -0.000001 1.709737 42.776583 -0.000001 0.113772 1.960660 -88.303882 -227.866135 0.000002 -0.669733 -0.113771 0.388341 0.076554 3.200009 84.759772 
0.000000 0.000000 0.000000 -0.000000 1.019410 50.873322 -0.000000 0.000000 1.456275 0.000002 -23.045004 -0.000002 -0.000001 0.000002 1.471445 -0.000001 -1.133457 38.963647 0.625745 0.000000 0.917755 0.000005 114.263915 -0.000002 -0.629533 0.000001 0.940221 0.000000 1.709736 41.214304 -0.000000 0.113772 1.960660 -88.303875 -229.405700 0.000002 -0.669733 -0.113771 0.388340 0.055340 3.224659 86.592305 
0.000000 0.000000 0.000000 -0.000000 1.019410 49.056153 -0.000000 0.000000 1.456275 -0.000000 -23.828404 0.000000 -0.000000 0.000002 1.471446 -0.000003 -1.133457 37.571085 0.625745 0.000000 0.917755 0.000004 115.005113 -0.000002 -0.629533 0.000001 0.940221 -0.000000 1.709737 39.742046 -0.000001 0.113772 1.960660 -88.303875 -230.856542 0.000003 -0.669733 -0.113771 0.388341 0.034631 3.247256 88.319298 
0.000000 0.000000 0.000000 -0.000000 1.019410 47.238903 -0.000000 -0.000000 1.456275 -0.000001 -24.611849 -0.000002 -0.000001 0.000002 1.471445 -0.000000 -1.133456 36.178450 0.625745 0.000000 0.917755 0.000007 115.746353 -0.000004 -0.629534 0.000001 0.940221 -0.000000 1.709737 38.269728 -0.000001 0.113772 1.960660 -88.303875 -232.307465 0.000003 -0.669733 -0.113771 0.388340 0.013251 3.269220 90.046400 
0.000000 0.000000 0.000000 -0.000000 1.019410 45.310464 -0.000000 0.000000 1.456275 0.000002 -25.443226 0.000000 -0.000000 0.000002 1.471445 -0.000001 -1.133459 34.700605 0.625745 0.000000 0.917755 0.000003 116.532931 -0.000003 -0.629533 0.000001 0.940221 -0.000000 1.709737 36.707322 -0.000001 0.113772 1.960661 -88.303882 -233.847154 0.000002 -0.669733 -0.113771 0.388340 -0.010154 3.291815 91.879240 
0.000000 0.000000 0.000000 -0.000000 1.019410 43.604488 -0.000000 0.000000 1.456275 -0.000001 -26.178698 0.000000 -0.000001 0.000002 1.471446 0.000000 -1.133456 33.393252 0.625745 0.000000 0.917755 0.000008 117.228791 -0.000002 -0.629533 0.000001 0.940220 -0.000001 1.709737 35.325151 -0.000001 0.113772 1.960660 -88.303882 -235.209203 0.000003 -0.669733 -0.113771 0.388341 -0.031454 3.311170 93.500686 
0.000000 0.000000 0.000000 -0.000000 1.019410 42.232166 -0.000000 0.000000 1.456275 0.000001 -26.770331 -0.000001 -0.000000 0.000002 1.471446 -0.000002 -1.133458 32.341584 0.625745 0.000000 0.917755 0.000002 117.788552 0.000003 -0.629533 0.000001 0.940221 -0.000001 1.709737 34.213299 -0.000001 0.113772 1.960660 -88.303875 -236.304874 0.000002 -0.669733 -0.113771 0.388340 -0.048981 3.326297 94.805047 
0.000000 0.000000 0.000000 -0.000000 1.019410 39.970069 -0.000000 0.000000 1.456275 0.000001 -27.745548 -0.000000 -0.000001 0.000002 1.471446 -0.000002 -1.133459 30.608045 0.625745 0.000000 0.917755 0.000005 118.711229 -0.000001 -0.629534 0.000001 0.940221 -0.000001 1.709737 32.380571 -0.000001 0.113772 1.960660 -88.303875 -238.110940 0.000001 -0.669733 -0.113771 0.388341 -0.078607 3.350354 96.955150 
0.000000 0.000000 0.000000 -0.000000 1.019410 36.335650 -0.000000 -0.000000 1.456275 0.000001 -29.312392 0.000001 -0.000001 0.000002 1.471445 -0.000002 -1.133456 27.822844 0.625745 0.000000 0.917754 0.000002 120.193653 -0.000003 -0.629534 0.000001 0.940221 -0.000003 1.709736 29.435995 0.000000 0.113772 1.960660 -88.303875 -241.012705 0.000005 -0.669733 -0.113771 0.388340 -0.128048 3.386631 100.409778 
0.000000 0.000000 0.000000 -0.000000 1.019410 34.071275 -0.000000 -0.000000 1.456275 -0.000001 -30.288597 0.000001 -0.000000 0.000002 1.471446 -0.000001 -1.133459 26.087556 0.625744 0.000000 0.917755 0.000002 121.117286 -0.000001 -0.629534 0.000001 0.940221 -0.000004 1.709736 27.601404 -0.000001 0.113772 1.960661 -88.303875 -242.820602 0.000002 -0.669733 -0.113771 0.388339 -0.159922 3.407702 102.562223 
0.000000 0.000000 0.000000 -0.000000 1.019410 32.701235 -0.000000 -0.000000 1.456275 -0.000000 -30.879248 0.000001 -0.000001 0.000002 1.471445 -0.000002 -1.133456 25.037646 0.625745 0.000000 0.917755 0.000003 121.676104 -0.000004 -0.629533 0.000001 0.940221 -0.000001 1.709736 26.491411 -0.000001 0.113772 1.960661 -88.303875 -243.914443 0.000005 -0.669733 -0.113771 0.388340 -0.179587 3.419865 103.864556 
0.000000 0.000000 0.000000 -0.000000 1.019410 31.003933 -0.000000 0.000000 1.456275 0.000001 -31.610976 -0.000002 -0.000000 0.000002 1.471446 -0.000001 -1.133458 23.736929 0.625745 0.000000 0.917755 0.000004 122.368412 0.000002 -0.629534 0.000001 0.940221 -0.000003 1.709737 25.116267 -0.000001 0.113772 1.960661 -88.303875 -245.269580 0.000004 -0.669733 -0.113771 0.388340 -0.204324 3.434311 105.478010 
0.000000 0.000000 0.000000 -0.000000 1.019410 29.066813 -0.000000 -0.000000 1.456275 0.000001 -32.446096 0.000000 -0.000001 0.000002 1.471446 -0.000001 -1.133461 22.252444 0.625745 0.000000 0.917755 0.000003 123.158542 -0.000001 -0.629534 0.000001 0.940221 -0.000001 1.709736 23.546831 -0.000001 0.113772 1.960661 -88.303875 -246.816180 0.000006 -0.669733 -0.113771 0.388340 -0.233039 3.449939 107.319477 
0.000000 0.000000 0.000000 -0.000000 1.019410 27.217153 -0.000000 0.000000 1.456275 -0.000000 -33.243514 -0.000001 -0.000001 0.000002 1.471446 -0.000000 -1.133457 20.834971 0.625745 0.000000 0.917755 0.000002 123.913005 -0.000001 -0.629534 0.000001 0.940221 -0.000006 1.709736 22.048242 -0.000001 0.113772 1.960661 -88.303875 -248.292976 0.000005 -0.669733 -0.113771 0.388340 -0.260916 3.463997 109.077841 
0.000000 0.000000 0.000000 -0.000000 1.019410 25.432399 -0.000000 -0.000000 1.456275 0.000001 -34.012942 0.000000 -0.000000 0.000002 1.471446 -0.000000 -1.133459 19.467241 0.625745 0.000000 0.917755 0.000005 124.640980 -0.000011 -0.629534 0.000001 0.940221 -0.000001 1.709736 20.602255 -0.000000 0.113772 1.960660 -88.303875 -249.717945 0.000007 -0.669733 -0.113771 0.388340 -0.288213 3.476745 110.774528 
0.000000 0.000000 0.000000 -0.000000 1.019410 23.625114 -0.000000 0.000000 1.456275 -0.000001 -34.792092 0.000003 -0.000000 0.000002 1.471446 -0.000001 -1.133458 18.082246 0.625745 0.000000 0.917755 0.000001 125.378149 -0.000007 -0.629534 0.000001 0.940220 -0.000002 1.709737 19.138004 -0.000001 0.113772 1.960660 -88.303868 -251.160891 0.000008 -0.669733 -0.113771 0.388340 -0.316228 3.488825 112.492669 
0.000000 0.000000 0.000000 -0.000000 1.019410 21.797977 -0.000000 0.000000 1.456275 0.000001 -35.579794 -0.000000 -0.000000 0.000002 1.471446 -0.000000 -1.133459 16.682042 0.625745 0.000001 0.917755 0.000001 126.123405 0.000000 -0.629534 0.000001 0.940221 -0.000001 1.709737 17.657677 -0.000001 0.113772 1.960661 -88.303875 -252.619683 0.000008 -0.669733 -0.113771 0.388340 -0.344908 3.500183 114.229702 
0.000000 0.000000 0.000000 -0.000000 1.019410 19.973531 -0.000000 0.000000 1.456275 -0.000001 -36.366342 0.000001 -0.000000 0.000002 1.471445 -0.000001 -1.133462 15.283894 0.625745 0.000000 0.917755 0.000002 126.867567 0.000001 -0.629533 0.000001 0.940221 -0.000003 1.709736 16.179519 -0.000000 0.113772 1.960660 -88.303868 -254.076316 0.000008 -0.669733 -0.113771 0.388340 -0.373875 3.510652 115.964195 
